<svg data-name="Layer 1" xmlns="http://www.w3.org/2000/svg" viewBox="0 0 377 667"><defs><clipPath id="a"><path fill="none" d="M0 0h377v667.59H0z"/></clipPath></defs><path d="M0 0h377v667H0z"/><g clip-path="url(#a)"><path d="M54 113.22l16.86-104-60.43 43.56zM98.72 457.6l72.7-52.43L108.86 395zm145.41-104.85l-62.57-10.14-10.14 62.57zm-1.63-66.23L67.4 258.23l-28.49 175.1zm29.18 283.82l-.09-.17a.13.13 0 00-.12.07l.09.11zm-62.55-168l-.13-.14c-.3.13-.22.45-.2.72.45.17.35-.37.33-.61zm47.49 134.62l-.32-.06h-.05c.3.1.75.03.38.02zM215 445.53v.11l.07.12a.13.13 0 00.11-.09zm57.11 79.2l-.09-.17a.13.13 0 00-.12.07l.09.11zm39.26 19.34l-.09-.17c-.23-.09-.71-.36-.65.13.21.11.49.28.7.04zM193.26 438.51v.11l.07.12a.13.13 0 00.11-.09zm78.62 109l-.09-.17a.13.13 0 00-.12.07l.09.11zM155.11 442.29c.09-.32-.06.06-.1.35h.06zm101.32 117.44l-.31-.06h-.05c.29.1.7.07.36.06zm-83.32-86.12l-.13-.14c-.3.13-.22.45-.2.72.45.21.35-.33.33-.58zm-21.7-7l-.13-.14c-.3.13-.22.44-.2.72.45.19.35-.35.33-.6zm43.66 13.85l-.13-.14c-.3.13-.22.44-.2.72.45.19.35-.35.33-.6zm-23.52-48.95v.11l.07.12a.13.13 0 00.11-.09zm5.25 17.82c.09-.32-.06.06-.11.35h.06zm21.7 7c.09-.32-.06.06-.1.35h.06zm-6.08 50.77v.11l.07.12a.13.13 0 00.11-.09zm13.45 65.35l-.09-.17a.13.13 0 00-.12.07l.1.11zm-15-10.8l-.31-.06h-.05c.31.11.72.08.39.07zm.19-22.81l-.32-.06h-.05c.31.11.73.08.4.07zm14.6 56.41l-.09-.17a.13.13 0 00-.12.07l.1.11zM88.64 464.88l-62.57-10.14-10.14 62.57zm117.9 61.78l-.09-.17a.13.13 0 00-.12.07l.09.11zm26.22 6.08l-.09-.17c-.23-.09-.71-.36-.65.13.24.1.52.3.73.04zm-1.59 68.56c.25.1.53.28.75 0l-.09-.17c-.24-.05-.72-.31-.66.17zm24.76-18.83h-.05c.29.05.7 0 .37 0zm-23.63-26.74l-.09-.17c-.23-.09-.71-.36-.65.13.25.11.53.31.74.04zm-26-6.27l-.09-.17a.13.13 0 00-.12.07l.09.11zm25.77 29.08l-.09-.17c-.23-.09-.71-.36-.65.13.29.1.56.28.78.04zm-61.37-78.45v.11l.07.12a.13.13 0 00.11-.09zm5.3 17.81c.09-.32-.06.06-.11.35h.06zm-46.27-58.33l-.13-.14c-.3.13-.22.44-.2.72.43.21.33-.32.31-.57zm157.09 182.25L297 579.25l-72.7 52.43zm72.7-52.43l10.14-62.57L297 579.25zm-6.21-65.31l-132.1-22.78-.1-.14 20.1-132.53L102.06 469l-22 134 134.25 21.33zm-154.36 76.65a4.32 4.32 0 01.35-5.44 4.26 4.26 0 01.92-.93 4.3 4.3 0 016.66 4.6.92.92 0 00-.2.1v.05l.14.13a4.38 4.38 0 01-.68 1.25 4.31 4.31 0 01-7.18.23zm-24.38-55.55a4.31 4.31 0 11-1 6 4.31 4.31 0 011-6zm-15.83-14.55a4.31 4.31 0 116 .95 4.31 4.31 0 01-6.01-.94zM219 614.12a4.24 4.24 0 01-.92.93 4.31 4.31 0 01-5.67-6.45 4.26 4.26 0 01.92-.93 4.31 4.31 0 015.67 6.45zm-32.65-49.69a4.31 4.31 0 01.35-5.44 4.27 4.27 0 01.92-.93 4.31 4.31 0 015.67 6.45 4.26 4.26 0 01-.92.93 4.31 4.31 0 01-6.05-1.01zm12.82 13.5a4.31 4.31 0 01.35-5.44 4.27 4.27 0 01.92-.93 4.3 4.3 0 016.66 4.6.91.91 0 00-.2.1v.05l.14.13a4.38 4.38 0 01-.68 1.25 4.31 4.31 0 01-7.18.23zm13.08 13.31a4.31 4.31 0 01.35-5.44 4.26 4.26 0 01.92-.93 4.31 4.31 0 015.67 6.45 4.27 4.27 0 01-.92.93 4.31 4.31 0 01-6.05-1.01zm-25.36-55.06a4.25 4.25 0 01.92-.93 4.94 4.94 0 11-.92.93zm-15-14.81a4.53 4.53 0 116.45.8 4.25 4.25 0 01-1.17.58 4.32 4.32 0 01-5.26-1.38zm59.54 84a4.31 4.31 0 111-6 4.31 4.31 0 01-.98 6.01zm-31.86-50.45a4.32 4.32 0 01.35-5.44 4.27 4.27 0 01.92-.93 4.3 4.3 0 016.66 4.6.91.91 0 00-.2.1v.05l.14.13a4.37 4.37 0 01-.68 1.25 4.31 4.31 0 01-7.18.23zm12.82 13.5a4.32 4.32 0 01.35-5.44 4.26 4.26 0 01.92-.93 4.31 4.31 0 015.67 6.45 4.26 4.26 0 01-.92.93 4.31 4.31 0 01-6-1zm13.22 13.13a4.31 4.31 0 116 1 4.31 4.31 0 01-5.98-.98zM189.13 505a.93.93 0 00.16-.16 5.8 5.8 0 11-1.69.23 4.36 4.36 0 011.41-.25.89.89 0 01.08.17zm11 21.72a4.29 4.29 0 017.58 3.67.91.91 0 00-.2.1v.05l.14.13a4.35 4.35 0 01-.68 1.25 4.31 4.31 0 11-6.83-5.21zm44.59 69.2a4.31 4.31 0 111-6 4.31 4.31 0 01-.99 5.97zm-31.86-50.44a4.31 4.31 0 01.35-5.44 4.26 4.26 0 01.92-.93 4.31 4.31 0 015.67 6.45 4.27 4.27 0 01-.92.93 4.31 4.31 0 01-6.01-1.05zm13 13.32a4.31 4.31 0 116 1 4.31 4.31 0 01-6.04-1.04zm13.08 13.31a4.31 4.31 0 116 1 4.31 4.31 0 01-6.04-1.03zm-25.49-54.88a4.25 4.25 0 01.92-.93 4.31 4.31 0 015.67 6.45 4.26 4.26 0 01-.92.93 4.31 4.31 0 01-5.67-6.45zm-15.1-15a4.31 4.31 0 01.95-6 4.26 4.26 0 011.17-.58 4.31 4.31 0 014.33 7.41 4.24 4.24 0 01-1.17.58 4.32 4.32 0 01-5.32-1.46zm60.3 83.2a4.25 4.25 0 01-.92.93 4.31 4.31 0 01-5.67-6.45 4.24 4.24 0 01.92-.93 4.31 4.31 0 015.67 6.45zm-32.33-49.61a4.31 4.31 0 116 1 4.31 4.31 0 01-6.04-1.05zm12.82 13.5a4.31 4.31 0 116 1 4.31 4.31 0 01-6.04-1.05zm12.76 13.23a4.31 4.31 0 01.35-5.44 4.25 4.25 0 01.92-.93 4.39 4.39 0 11-1.27 6.37zm67.28-30.9a4.31 4.31 0 11-1 6 4.31 4.31 0 01.95-6.06zm-7.26 10.5a4.31 4.31 0 11-6-1 4.31 4.31 0 015.96.94zM292 528.58a4.27 4.27 0 01.92-.93 4.31 4.31 0 015.67 6.45 4.24 4.24 0 01-.92.93 4.31 4.31 0 01-5.67-6.45zm6.75 22.88a4.31 4.31 0 01-.35 5.44 4.27 4.27 0 01-.92.93 4.31 4.31 0 01-5.67-6.45 4.25 4.25 0 01.93-.93 4.31 4.31 0 016.04 1.01zm-13.05-13.31a4.53 4.53 0 11-6.94-.08 4.27 4.27 0 01.92-.93 4.31 4.31 0 016.02 1.01zm-20-13.39a4.27 4.27 0 01.92-.93 4.3 4.3 0 016.66 4.6.91.91 0 00-.2.1v.05l.14.13a4.39 4.39 0 01-.68 1.26 4.31 4.31 0 11-6.83-5.21zM285.5 561a4.31 4.31 0 01-.35 5.44 4.25 4.25 0 01-.92.93 4.31 4.31 0 01-5.67-6.45 4.25 4.25 0 01.92-.93 4.31 4.31 0 016.02 1.01zm-13.08-13.31a4.28 4.28 0 01.64 3.6.91.91 0 00-.2.1v.05l.14.13a4.38 4.38 0 01-.68 1.25 4.3 4.3 0 11.11-5.13zm-13.08-13.31a4.31 4.31 0 01-.35 5.44 4.25 4.25 0 01-.92.93 4.31 4.31 0 01-5.67-6.45 4.25 4.25 0 01.92-.93 4.31 4.31 0 016.02.96zm-18.78-14.06a4.31 4.31 0 11-1 6 4.31 4.31 0 011-6.06zm31.67 50.18a4.28 4.28 0 01.64 3.6 1 1 0 00-.2.1v.05l.14.13a4.35 4.35 0 01-.68 1.26 4.3 4.3 0 11.11-5.13zm-54-178.72a4.31 4.31 0 11-.95 6 4.31 4.31 0 01.94-6.05zm-13.2 9.6a4.31 4.31 0 11-.95 6 4.31 4.31 0 01.92-6.05zm8.25 16.62a4.25 4.25 0 011.17-.58 4.31 4.31 0 014.33 7.41 4.27 4.27 0 01-1.17.58 4.31 4.31 0 01-4.33-7.41zm-21.7-7a4.26 4.26 0 011.17-.58 4.31 4.31 0 014.33 7.41 4.24 4.24 0 01-1.17.58 4.31 4.31 0 01-4.33-7.41zm8.5 16.62a4.26 4.26 0 011.17-.58 4.26 4.26 0 11-1.17.58zm8.5 16.62a4.3 4.3 0 011.54-.71 4.38 4.38 0 011.41-.25 1 1 0 01.08.17h.05a.91.91 0 00.16-.16 4.49 4.49 0 11-3.24.94zm-30.2-23.63a4.27 4.27 0 011.17-.58 4.31 4.31 0 014.33 7.41 4.25 4.25 0 01-1.17.58 4.31 4.31 0 01-4.33-7.41zm8.5 16.61a4.29 4.29 0 011.54-.71 4.37 4.37 0 011.41-.25 1 1 0 01.08.17h.09a.94.94 0 00.16-.16 4.49 4.49 0 11-3.24.94zm8.5 16.62a4.26 4.26 0 011.17-.58 4.31 4.31 0 014.33 7.41 4.26 4.26 0 01-1.17.58 4.31 4.31 0 01-4.33-7.41zm8.78 16.09a4.31 4.31 0 11-.95 6 4.31 4.31 0 01.95-6.06zm-39-39.73a4.29 4.29 0 011.54-.71 4.35 4.35 0 011.41-.25 1 1 0 01.08.17h.05a1 1 0 00.16-.16 4.49 4.49 0 11-3.24.94zm8.5 16.62a4.31 4.31 0 11-.95 6 4.27 4.27 0 01.97-6.07zM182.2 463a4.31 4.31 0 11-.95 6 4.31 4.31 0 01.95-6zm8.8 16.46a4.31 4.31 0 11-.95 6 4.31 4.31 0 01.95-6zm-39-39.73a4.26 4.26 0 011.17-.58 4.31 4.31 0 014.33 7.41 4.25 4.25 0 01-1.17.58 4.31 4.31 0 01-4.33-7.41zm8.5 16.27a4.31 4.31 0 11-.95 6 4.31 4.31 0 01.95-6zm8.5 16.62a4.31 4.31 0 11-.95 6 4.31 4.31 0 01.95-5.99zm8.55 16.5a4.26 4.26 0 011.17-.58 4.31 4.31 0 014.33 7.41 4.26 4.26 0 01-1.17.58 4.31 4.31 0 01-4.33-7.41zM138.8 449a4.31 4.31 0 11-.95 6 4.31 4.31 0 01.95-6zm8.5 16.62a4.31 4.31 0 11-.95 6 4.31 4.31 0 01.96-6zm8.29 16.69a4.31 4.31 0 11-.95 6 4.27 4.27 0 01.96-6.01zm8.76 16.43a4.29 4.29 0 011.54-.71 4.38 4.38 0 011.41-.25.92.92 0 01.08.17h.05a.9.9 0 00.16-.16 4.49 4.49 0 11-3.24.94zm-38.74-40.14a4.31 4.31 0 11-.95 6 4.31 4.31 0 01.95-6zm8.29 16.69a4.25 4.25 0 011.17-.58 4.31 4.31 0 014.33 7.41 4.26 4.26 0 01-1.17.58 4.31 4.31 0 01-4.33-7.41zm8.5 16.61a4.3 4.3 0 011.54-.71 4.36 4.36 0 011.41-.25 1 1 0 01.08.17.59.59 0 00.18-.16 4.49 4.49 0 11-3.24.94zm8.76 16.43a4.26 4.26 0 011.17-.58 4.26 4.26 0 11-1.17.58zm-39-40.06a4.27 4.27 0 011.17-.58 4.31 4.31 0 014.33 7.41 4.26 4.26 0 01-1.17.58 4.31 4.31 0 01-4.33-7.41zm8.5 16.61a4.29 4.29 0 011.54-.71 4.36 4.36 0 011.41-.25.93.93 0 01.08.17h.05a.94.94 0 00.16-.16 4.49 4.49 0 11-3.24.94zm8.5 16.62a4.26 4.26 0 011.17-.58 4.31 4.31 0 014.33 7.41 4.27 4.27 0 01-1.17.58 4.31 4.31 0 01-4.33-7.41zm8.84 16.09a4.31 4.31 0 11-.95 6 4.31 4.31 0 01.95-6zm8.5 16.62a4.31 4.31 0 11-.95 6 4.31 4.31 0 01.93-6zm-39-39.73a4.31 4.31 0 11-.95 6 4.27 4.27 0 01.95-6zm8.5 16.28a4.31 4.31 0 11-.95 6 4.31 4.31 0 01.95-6zm8.76 16.43a4.31 4.31 0 11-.95 6 4.31 4.31 0 01.97-6zm8.24 16.63a4.24 4.24 0 011.17-.58 4.31 4.31 0 014.33 7.41 4.25 4.25 0 01-1.17.58 4.31 4.31 0 01-4.33-7.41zm-21.7-7a4.25 4.25 0 011.17-.58 4.26 4.26 0 11-1.17.58zm8.5 16.62a4.26 4.26 0 011.17-.58 4.31 4.31 0 014.33 7.41 4.26 4.26 0 01-1.17.58 4.31 4.31 0 01-4.33-7.41zm-13.2 9.6a4.29 4.29 0 011.54-.71 4.36 4.36 0 011.41-.25 1 1 0 01.08.17h.05a.91.91 0 00.16-.16 4.49 4.49 0 11-3.24.94zM114 599a4.26 4.26 0 01-.92.93 4.31 4.31 0 01-5.67-6.45 4.25 4.25 0 01.92-.93A4.31 4.31 0 01114 599zm-15.1-19.52a4.25 4.25 0 01-1.17.58 4.31 4.31 0 01-4.33-7.41 4.25 4.25 0 011.17-.58 4.31 4.31 0 014.33 7.41zm21.43 10a4.53 4.53 0 117.93-1.77.93.93 0 00-.2.1v.05l.14.13a4.37 4.37 0 01-.68 1.25 4.31 4.31 0 01-7.18.23zm20 13.39a4.26 4.26 0 01-.92.93 4.31 4.31 0 01-5.67-6.45 4.26 4.26 0 01.92-.93 4.31 4.31 0 015.67 6.45zm-36.75-49.56a4.25 4.25 0 01-1.17.58 4.31 4.31 0 01-4.33-7.41 4.26 4.26 0 011.17-.58 4.31 4.31 0 014.33 7.41zm30 26.67a4.32 4.32 0 01.35-5.44 4.27 4.27 0 01.92-.93 4.31 4.31 0 015.67 6.45 4.26 4.26 0 01-.92.93 4.31 4.31 0 01-5.96-1.08zm13.08 13.31a4.31 4.31 0 01.35-5.44 4.26 4.26 0 01.92-.93 4.31 4.31 0 015.67 6.45 4.25 4.25 0 01-.92.93 4.31 4.31 0 01-5.96-1.08zm18.94 14.27a4.31 4.31 0 111-6 4.31 4.31 0 01-.94 5.93zm-57.7-80.23a4.31 4.31 0 11.95-6 4.31 4.31 0 01-.95 6zm39 43.08a4.32 4.32 0 01.35-5.44 4.24 4.24 0 01.93-.93 4.31 4.31 0 015.67 6.45 4.26 4.26 0 01-.92.93 4.31 4.31 0 01-6.01-1.01zm13.18 13.08a4.31 4.31 0 116 1 4.31 4.31 0 01-5.99-.99zM172.92 597a4.31 4.31 0 116 1 4.31 4.31 0 01-6-1zm19.7 13.3a4.3 4.3 0 11-6.59-5.52 4.25 4.25 0 01.92-.93 4.31 4.31 0 015.67 6.45zm-32.33-49.61a4.31 4.31 0 116 1 4.31 4.31 0 01-6-1zM173.37 574a4.31 4.31 0 116 1 4.31 4.31 0 01-6-1zm12.5 13.41a4.31 4.31 0 01.35-5.44 4.25 4.25 0 01.92-.93 4.31 4.31 0 015.67 6.45 4.25 4.25 0 01-.92.93 4.31 4.31 0 01-6.02-1zm4.58-2.77l-.32-.06h-.05c.29.11.7.08.37.07zm167.55-74l-102.55-142.2-19.83 122.38zm-191.23 47l-.09-.17c-.23-.09-.71-.36-.65.13.24.12.52.3.73.06zm-18-64.4v.11l.07.12a.13.13 0 00.11-.09zm1.82 41.93l-.13-.14c-.3.13-.22.44-.2.72.44.25.35-.32.33-.57zm-21.7-7l-.13-.14c-.3.13-.22.44-.2.72.44.25.35-.33.33-.58zM110.63 497c.09-.32-.06.06-.11.35h.06zm21.7 7c.09-.32-.06.06-.11.35h.06zm-5.25-17.82v.11l.07.12a.13.13 0 00.11-.09zm27.21 24.65c.09-.32-.06.06-.1.35h.06zm35.65 96.51h-.05c.29.05.7 0 .37 0zm-24.56-4c.25.1.53.28.74 0l-.09-.17c-.23.02-.71-.24-.66.25zm-58.77-81.5c.44.21.35-.33.33-.58l-.13-.14c-.31.2-.23.52-.21.8zm60 58.55l-.09-.17c-.23-.09-.71-.36-.66.13.22.18.5.36.71.11zm-55.21 15.6h-.05c.29.05.7 0 .37 0zm1.6-31.62v.11l.07.12a.13.13 0 00.11-.09zm-16.48 11.12v-.32c.09-.32-.06.06-.1.35zm30.59 8.43l-.09-.17a.13.13 0 00-.12.07l.1.11zm121.57-360.68a10.17 10.17 0 1014.2 2.23 10.17 10.17 0 00-14.2-2.23zm31.58-125.07a1.18 1.18 0 00-.75.42 1.52 1.52 0 00-.42.53 1.48 1.48 0 00.48 1.83s.52.38 1.35.94l.72.56a1.8 1.8 0 00.43.22c9.92 6.68 42.55 26.94 57.65 15.94a15.76 15.76 0 001.7-1.44l.35-.38a3.27 3.27 0 00.88-3c-5.93-22.9-60.08-15.93-62.39-15.62zm-7.61 107.61a10.17 10.17 0 1014.2 2.23 10.17 10.17 0 00-14.2-2.23zm21.74-3.26a10.17 10.17 0 102.23-14.2 10.17 10.17 0 00-2.23 14.2zm-4.28 27.23a10.17 10.17 0 1014.2 2.23 10.17 10.17 0 00-14.2-2.23zm-58.89-30.49a10.17 10.17 0 1014.2 2.23 10.17 10.17 0 00-14.2-2.23zm-17.46-24a10.17 10.17 0 1014.2 2.23 10.17 10.17 0 00-14.2-2.2zm69.83 95.89a10.17 10.17 0 1014.2 2.23 10.17 10.17 0 00-14.19-2.2zm-28.4-89.38A10.17 10.17 0 10269.4 184a10.17 10.17 0 00-14.21-2.19zm10.94 65.4a10.17 10.17 0 1014.2 2.23 10.17 10.17 0 00-14.19-2.19zM208.9 87.08a1.35 1.35 0 00.23-.21 1.49 1.49 0 00-.38-2.6l-1-.71L207 83a1.83 1.83 0 00-.42-.21c-9.92-6.68-42.55-26.94-57.65-15.93a15.9 15.9 0 00-1.71 1.45l-.35.38a3.28 3.28 0 00-.87 3c5.93 22.87 60.09 15.9 62.39 15.59a1.12 1.12 0 00.51-.2zM137 89.63a6.26 6.26 0 000 8.84c83.29 83.31 192.74 48.84 193.83 48.49a6.13 6.13 0 001.76-.89 6.25 6.25 0 00-5.61-11c-1 .33-103.31 32.41-181.13-45.44a6.31 6.31 0 00-8.85 0zm219 372.3l10-64.54-64.54-10zM18.6 91.31c0 .19.06.21.14 0 .56-1.3 2.21-6-1.92-9a7.68 7.68 0 01-2.14-2.47.07.07 0 00-.14 0c-.07 1.34-.24 4.63 2.24 7a6.88 6.88 0 011.82 4.47zm24.46 114.77l18.77 26L87.18 75.67 61.47 94.21zM158.44 39.91a6.33 6.33 0 00-4 7.88 6.26 6.26 0 007.88 4c1-.33 103.46-32.26 181.13 45.44a6.23 6.23 0 008.1.63 6.08 6.08 0 00.74-.63 6.26 6.26 0 000-8.84C269 5.09 159.53 39.56 158.44 39.91zM12 102c-10.33 12-4.55 25.85 10.41 28.42a.21.21 0 00.17-.35c-1.21-1.12-3.06-3.6.79-5.92 4.34-2.62 8.16-3.66 10.1-10.48a13.81 13.81 0 00.35-7.15.12.12 0 00-.21 0c-.55.69-2.6 3-5.26 3.5a.08.08 0 01-.07-.13 18.69 18.69 0 003.1-7.58c1.29-6.3-.78-14.51-10-18.28a.1.1 0 00-.12.14c2.68 3.81-.36 9.07-2 10.68-2.76 2.77-5.2 4.77-7.26 7.15zm157.82 72.27l-75-104.11-29 179.13zM184 253.36a29.35 29.35 0 10-41-6.64 29.35 29.35 0 0041 6.64zm-31.51-22.83a7.9 7.9 0 01-.38-1.29 7.44 7.44 0 01.16-3.56 7 7 0 012.91-3.37 5.11 5.11 0 014.52-.38v-.12c0-5.34 4.39-6.42 4.39-6.42a7.2 7.2 0 013.14-.31 7.29 7.29 0 012 .48 6.24 6.24 0 01.87.39 8.15 8.15 0 013.33 3.44 18.45 18.45 0 012.27 8.82s-.06 4.79-.21 6.34c-.21 2.2-1.53 8.53-1.53 8.53a12 12 0 00-3.22-3.52c-2.33-1.81-8.67-2.76-8.67-2.76a19 19 0 01-4.21-1.26 12.38 12.38 0 01-3.62-2.61 6.76 6.76 0 01-1.13-1.38 7.28 7.28 0 01-.6-1.02z" fill="#161919"/></g></svg>